<?xml version="1.0" encoding="utf-8"?>
<!-- Generator: Adobe Illustrator 22.1.0, SVG Export Plug-In . SVG Version: 6.00 Build 0)  -->
<svg version="1.1" id="Layer_1" xmlns="http://www.w3.org/2000/svg" xmlns:xlink="http://www.w3.org/1999/xlink" x="0px" y="0px"
	 viewBox="0 0 209.1 205.5" style="enable-background:new 0 0 209.1 205.5;" xml:space="preserve">
<style type="text/css">
	.st0{fill:#97B753;}
</style>
<path class="st0" d="M104.4,2C48.5,2,3.3,47.3,3.3,103.1s45.3,101.1,101.1,101.1s101.1-45.3,101.1-101.1S160.2,2,104.4,2z M70,141.2
	c-4.9,4.9-19.9,3.1-33-6.9c-15.3-11.6-17.8-32.7-15.9-42c9.3-1.9,30.9,1,42.5,16.3C73.6,121.6,75.3,135.8,70,141.2z M122.9,102.5
	c-2.2,23.6-11,40-18.6,40c-7,0-16.3-17.3-18.5-40.9C83.2,74,96.3,49.8,104.3,42.2C112.3,49.8,125.5,74.9,122.9,102.5z M171.4,134.7
	c-13.1,10-27.3,11.7-32.6,6.4c-4.9-4.9-3.1-19.9,6.9-33c11.6-15.3,32.7-17.8,42-15.9C189.6,101.5,186.7,123.1,171.4,134.7z"/>
</svg>
