<svg xmlns="http://www.w3.org/2000/svg" width="41.642" height="49.733" viewBox="0 0 41.642 49.733">
  <g id="Gruppe_979" data-name="Gruppe 979" transform="translate(-621.542 -1515.167)">
    <g id="Gruppe_950" data-name="Gruppe 950" transform="translate(622.058 1515.667)">
      <g id="Gruppe_121" data-name="Gruppe 121">
        <path id="Pfad_213" data-name="Pfad 213" d="M83.14,41.1l-3.486-5.811a17.262,17.262,0,0,1-2.461-8.882V21.32A14.232,14.232,0,0,0,67.04,7.706V4.061a4.061,4.061,0,1,0-8.122,0V7.706A14.232,14.232,0,0,0,48.765,21.32v5.091a17.273,17.273,0,0,1-2.459,8.88L42.82,41.1a1.017,1.017,0,0,0,.869,1.539h38.58A1.015,1.015,0,0,0,83.14,41.1Z" transform="translate(-42.675)" fill="#fff" stroke="#fff" stroke-width="1"/>
      </g>
    </g>
    <g id="Gruppe_951" data-name="Gruppe 951" transform="translate(635.968 1560.339)">
      <g id="Gruppe_123" data-name="Gruppe 123">
        <path id="Pfad_214" data-name="Pfad 214" d="M188.815,469.333a7.064,7.064,0,0,0,12.788,0Z" transform="translate(-188.815 -469.333)" fill="#707070" stroke="#707070" stroke-width="1"/>
      </g>
    </g>
  </g>
</svg>
