<svg id="calendar" xmlns="http://www.w3.org/2000/svg" width="29" height="29" viewBox="0 0 29 29">
  <path id="Pfad_319" data-name="Pfad 319" d="M64.906,239.5h3.021a.907.907,0,0,0,.906-.906v-3.021a.907.907,0,0,0-.906-.906H64.906a.907.907,0,0,0-.906.906V238.6A.907.907,0,0,0,64.906,239.5Zm0,0" transform="translate(-60.375 -221.376)" fill="#707070"/>
  <path id="Pfad_320" data-name="Pfad 320" d="M64.906,367.5h3.021a.907.907,0,0,0,.906-.906v-3.021a.907.907,0,0,0-.906-.906H64.906a.907.907,0,0,0-.906.906V366.6A.907.907,0,0,0,64.906,367.5Zm0,0" transform="translate(-60.375 -342.126)" fill="#707070"/>
  <path id="Pfad_321" data-name="Pfad 321" d="M214.238,239.5h3.021a.907.907,0,0,0,.906-.906v-3.021a.907.907,0,0,0-.906-.906h-3.021a.907.907,0,0,0-.906.906V238.6A.907.907,0,0,0,214.238,239.5Zm0,0" transform="translate(-201.249 -221.376)" fill="#707070"/>
  <path id="Pfad_322" data-name="Pfad 322" d="M214.238,367.5h3.021a.907.907,0,0,0,.906-.906v-3.021a.907.907,0,0,0-.906-.906h-3.021a.907.907,0,0,0-.906.906V366.6A.907.907,0,0,0,214.238,367.5Zm0,0" transform="translate(-201.249 -342.126)" fill="#707070"/>
  <path id="Pfad_323" data-name="Pfad 323" d="M363.574,239.5H366.6a.907.907,0,0,0,.906-.906v-3.021a.907.907,0,0,0-.906-.906h-3.021a.907.907,0,0,0-.906.906V238.6A.907.907,0,0,0,363.574,239.5Zm0,0" transform="translate(-342.126 -221.376)" fill="#707070"/>
  <path id="Pfad_324" data-name="Pfad 324" d="M25.375,3.625H24.167V1.208A1.209,1.209,0,0,0,22.958,0H21.75a1.209,1.209,0,0,0-1.208,1.208V3.625H8.458V1.208A1.209,1.209,0,0,0,7.25,0H6.042A1.209,1.209,0,0,0,4.833,1.208V3.625H3.625A3.629,3.629,0,0,0,0,7.25V25.375A3.629,3.629,0,0,0,3.625,29h21.75A3.629,3.629,0,0,0,29,25.375V7.25a3.629,3.629,0,0,0-3.625-3.625Zm1.208,21.75a1.21,1.21,0,0,1-1.208,1.208H3.625a1.21,1.21,0,0,1-1.208-1.208V12.132H26.583Zm0,0" transform="translate(0)" fill="#707070"/>
</svg>
