<svg xmlns="http://www.w3.org/2000/svg" width="17.8" height="28.229" viewBox="0 0 17.8 28.229">
  <g id="Gruppe_969" data-name="Gruppe 969" transform="translate(0.5 0.5)">
    <path id="Pfad_501" data-name="Pfad 501" d="M12.379,19.6H5.415a.8.8,0,0,1-.8-.8,6.71,6.71,0,0,0-1.837-4.6A8.411,8.411,0,0,1,2.934,2.523,8.315,8.315,0,0,1,8.881,0H8.9a8.414,8.414,0,0,1,8.4,8.428,8.407,8.407,0,0,1-2.3,5.8,6.641,6.641,0,0,0-1.817,4.581.8.8,0,0,1-.8.8Zm0,0" transform="translate(-0.497 0)" fill="#97b753" stroke="#97b753" stroke-width="1"/>
    <path id="Pfad_502" data-name="Pfad 502" d="M87.486,388.005H80.731a.8.8,0,0,1,0-1.6h6.755a.8.8,0,0,1,0,1.6Zm0,0" transform="translate(-75.708 -365.86)" fill="#707070" stroke="#707070" stroke-width="1"/>
    <path id="Pfad_503" data-name="Pfad 503" d="M87.486,435.8H80.731a.8.8,0,0,1,0-1.6h6.755a.8.8,0,0,1,0,1.6Zm0,0" transform="translate(-75.708 -411.111)" fill="#707070" stroke="#707070" stroke-width="1"/>
    <path id="Pfad_504" data-name="Pfad 504" d="M108.372,483.6H104.1a.8.8,0,0,1,0-1.6h4.269a.8.8,0,1,1,0,1.6Zm0,0" transform="translate(-97.837 -456.366)" fill="#707070" stroke="#707070" stroke-width="1"/>
  </g>
</svg>
