<svg xmlns="http://www.w3.org/2000/svg" width="27.681" height="24.848" viewBox="0 0 27.681 24.848">
  <path id="heart" d="M23.644,2.236A6.906,6.906,0,0,0,18.508,0a6.461,6.461,0,0,0-4.035,1.393,8.256,8.256,0,0,0-1.631,1.7,8.251,8.251,0,0,0-1.632-1.7A6.46,6.46,0,0,0,7.174,0,6.906,6.906,0,0,0,2.038,2.236,8.027,8.027,0,0,0,0,7.718a9.559,9.559,0,0,0,2.547,6.257,54.314,54.314,0,0,0,6.376,5.985c.883.753,1.885,1.606,2.925,2.516a1.508,1.508,0,0,0,1.985,0c1.04-.909,2.042-1.763,2.926-2.517a54.284,54.284,0,0,0,6.376-5.984,9.558,9.558,0,0,0,2.547-6.257,8.026,8.026,0,0,0-2.037-5.482Zm0,0" transform="translate(1 1)" fill="#dedede" stroke="#707070" stroke-width="2"/>
</svg>
