<svg xmlns="http://www.w3.org/2000/svg" width="37.2" height="59.672" viewBox="0 0 37.2 59.672">
  <g id="Gruppe_974" data-name="Gruppe 974" transform="translate(-55.501 -682.877)">
    <path id="Pfad_501" data-name="Pfad 501" d="M26.1,42.241h-15a1.719,1.719,0,0,1-1.719-1.719,14.459,14.459,0,0,0-3.958-9.916A18.124,18.124,0,0,1,5.747,5.436,17.917,17.917,0,0,1,18.562,0H18.6A18.131,18.131,0,0,1,36.7,18.16a18.116,18.116,0,0,1-4.963,12.492,14.311,14.311,0,0,0-3.916,9.87A1.719,1.719,0,0,1,26.1,42.241Zm0,0" transform="translate(55.504 683.377)" fill="#fff" stroke="#fff" stroke-width="1"/>
    <path id="Pfad_502" data-name="Pfad 502" d="M96.208,389.848H81.652a1.719,1.719,0,0,1,0-3.438H96.208a1.719,1.719,0,0,1,0,3.438Zm0,0" transform="translate(-14.829 341.247)" fill="#707070" stroke="#707070" stroke-width="1"/>
    <path id="Pfad_503" data-name="Pfad 503" d="M96.208,437.641H81.652a1.719,1.719,0,0,1,0-3.438H96.208a1.719,1.719,0,0,1,0,3.438Zm0,0" transform="translate(-14.829 298.931)" fill="#707070" stroke="#707070" stroke-width="1"/>
    <path id="Pfad_504" data-name="Pfad 504" d="M114.223,485.438h-9.2a1.719,1.719,0,1,1,0-3.438h9.2a1.719,1.719,0,1,1,0,3.438Zm0,0" transform="translate(-35.523 256.612)" fill="#707070" stroke="#707070" stroke-width="1"/>
  </g>
</svg>
