<svg xmlns="http://www.w3.org/2000/svg" width="45.711" height="57.738" viewBox="0 0 45.711 57.738">
  <g id="Gruppe_980" data-name="Gruppe 980" transform="translate(-112.445 -793.803)">
    <path id="Pfad_505" data-name="Pfad 505" d="M298.68,45.536c.25.683,3.026,8.813-2.667,18.4-3.458,5.823-8.709,6.208-9.223,6.232-.3-.418-3.265-4.768-.857-11.1C289.9,48.648,297.99,45.765,298.68,45.536Z" transform="translate(-146.494 753.993)" fill="#fff" stroke="#dedede" stroke-width="1"/>
    <path id="Pfad_506" data-name="Pfad 506" d="M95.883,45.536c-.25.683-3.026,8.813,2.667,18.4,3.458,5.823,8.709,6.208,9.223,6.232.3-.418,3.265-4.768.857-11.1C104.665,48.648,96.573,45.765,95.883,45.536Z" transform="translate(22.532 753.993)" fill="#fff" stroke="#dedede" stroke-width="1"/>
    <path id="Pfad_507" data-name="Pfad 507" d="M181.442,0c-.848.823-10.646,10.752-9.088,28.791.946,10.957,8.353,15.226,9.088,15.624.735-.4,8.142-4.668,9.088-15.624C192.088,10.752,182.289.823,181.442,0Z" transform="translate(-46.142 794.5)" fill="#fff" stroke="#dedede" stroke-width="1"/>
    <path id="Pfad_508" data-name="Pfad 508" d="M276.978,151.56a35.5,35.5,0,0,0,1.22-12.226s-3.55,1.582-12.473,7.347c-6.936,4.482-9.081,12.34-9.725,14.458h8.151A13.344,13.344,0,0,0,276.978,151.56Z" transform="translate(-120.699 670.553)" fill="#fff" stroke="#dedede" stroke-width="1"/>
    <path id="Pfad_509" data-name="Pfad 509" d="M55.39,151.56a35.5,35.5,0,0,1-1.22-12.226s3.55,1.582,12.473,7.347c6.936,4.482,9.081,12.34,9.725,14.458H68.217A13.344,13.344,0,0,1,55.39,151.56Z" transform="translate(58.932 670.553)" fill="#fff" stroke="#dedede" stroke-width="1"/>
    <path id="Pfad_510" data-name="Pfad 510" d="M142.653,359.8H130.864a6.49,6.49,0,0,1-6.381-5.3L121.956,340.9h29.605l-2.527,13.591A6.49,6.49,0,0,1,142.653,359.8Z" transform="translate(-1.458 491.245)" fill="#707070" stroke="#707070" stroke-width="1"/>
    <path id="Pfad_511" data-name="Pfad 511" d="M129.811,332.343H99.174a2.248,2.248,0,0,1-2.248-2.248h0a2.248,2.248,0,0,1,2.248-2.248h30.638a2.248,2.248,0,0,1,2.248,2.248h0A2.248,2.248,0,0,1,129.811,332.343Z" transform="translate(20.808 502.857)" fill="#707070" stroke="#707070" stroke-width="1"/>
  </g>
</svg>
