<?xml version="1.0" encoding="utf-8"?>
<!-- Generator: Adobe Illustrator 22.1.0, SVG Export Plug-In . SVG Version: 6.00 Build 0)  -->
<svg version="1.1" id="Capa_1" xmlns="http://www.w3.org/2000/svg" xmlns:xlink="http://www.w3.org/1999/xlink" x="0px" y="0px"
	 viewBox="0 0 512 512" style="enable-background:new 0 0 512 512;" xml:space="preserve" fill="white">
<g>
	<path d="M487.7,369.8l-1.1-12.6c-2.9-32.6-31.5-69.1-72.9-93c-3-1.7-6.1-3-9.1-4.5L371,229.7l-65-0.1l-25.8,29.9
		c-2.9,3-5.7,6.1-7.9,9.7c-22,37.9,22.4,99.5,66.4,125c34,19.6,82.4,32.6,116.9,16.6l11.4-5.3l-7.5-28.2L487.7,369.8z"/>
	<path d="M256,278.7c-43.8,0-75,69.2-75,120c0,46.2,16.5,86.7,44.1,106.1l10.3,7.3l20.6-20.6l20.6,20.6l10.3-7.3
		c27.6-19.4,44.1-59.8,44.1-106.1C331,331.4,298.1,278.7,256,278.7L256,278.7z"/>
	<path d="M239.7,269.3c-21.8-37.8-97.2-30.5-141.4-5c-41.4,23.9-70,60.4-72.9,93l-1.1,12.6l28.2,7.5l-7.5,28.2l11.4,5.3
		c34.7,16.1,83.3,2.8,116.9-16.6C231.5,360.6,260.7,305.7,239.7,269.3L239.7,269.3z"/>
	<path d="M173.3,125.5C131.9,101.6,86,95.1,56.3,108.8l-11.4,5.3l7.5,28.2l-28.2,7.6l1.1,12.6c2.9,32.6,31.5,69.1,72.9,92.9
		c45.4,26.2,116.1,39,141.4-4.9C261.6,212.6,217.3,150.9,173.3,125.5L173.3,125.5z"/>
	<path d="M286.9,7.3L276.6,0L256,20.6L235.4,0l-10.3,7.3C198.7,25.8,181,72.2,181,121c0,67.3,32.9,120,75,120c43.7,0,75-69,75-120
		C331,72.2,313.3,25.8,286.9,7.3z"/>
	<path d="M404.7,259.8c3-1.5,6.3-2.8,9.1-4.4c41.4-23.9,70-60.4,72.9-92.9l1.1-12.6l-28.2-7.6l7.5-28.2l-11.4-5.3
		c-29.6-13.8-75.5-7.3-116.9,16.6c-45.5,26.3-91.8,81-66.4,124.9c2,3.6,5,6.3,7.9,9.1C304.7,234.6,355.1,234.4,404.7,259.8
		L404.7,259.8z"/>
</g>
</svg>
