<?xml version="1.0" encoding="utf-8"?>
<!-- Generator: Adobe Illustrator 22.1.0, SVG Export Plug-In . SVG Version: 6.00 Build 0)  -->
<svg version="1.1" id="Layer_1" xmlns="http://www.w3.org/2000/svg" xmlns:xlink="http://www.w3.org/1999/xlink" x="0px" y="0px"
	 viewBox="0 0 512 512" style="enable-background:new 0 0 512 512;" xml:space="preserve" fill="white">
<g id="Fertilizer">
	<g id="Glyph">
		<path d="M259,1c-37.8,0-103.3,55.9-144.9,98.4c-3.1,3.2-3,8.2,0.1,11.3c1.5,1.5,3.5,2.3,5.6,2.3h277.8c4.4,0,8-3.6,8-8
			c0-2.1-0.8-4.2-2.3-5.7C361,56.9,294.1,1,259,1z M187,97c-4.4,0-8-3.6-8-8s3.6-8,8-8s8,3.6,8,8S191.4,97,187,97z M219,65
			c-4.4,0-8-3.6-8-8s3.6-8,8-8s8,3.6,8,8S223.4,65,219,65z M235,97c-4.4,0-8-3.6-8-8s3.6-8,8-8s8,3.6,8,8S239.4,97,235,97z M243,33
			c-4.4,0-8-3.6-8-8s3.6-8,8-8s8,3.6,8,8S247.4,33,243,33z M259,57c-4.4,0-8-3.6-8-8s3.6-8,8-8s8,3.6,8,8S263.4,57,259,57z M275,97
			c-4.4,0-8-3.6-8-8s3.6-8,8-8s8,3.6,8,8S279.4,97,275,97z M283,41c-4.4,0-8-3.6-8-8s3.6-8,8-8s8,3.6,8,8S287.4,41,283,41z M299,73
			c-4.4,0-8-3.6-8-8s3.6-8,8-8s8,3.6,8,8S303.4,73,299,73z M331,97c-4.4,0-8-3.6-8-8s3.6-8,8-8s8,3.6,8,8S335.4,97,331,97z"/>
		<path d="M475,313c0-20.6-7.1-66.5-13.6-104.1c13.2-1.3,22.8-13,21.5-26.2c-0.5-5.1-2.6-9.9-6-13.7c4.2-4.7,6.4-10.9,6.1-17.2
			c-0.6-12.9-11.6-22.8-24.5-22.8H51c-8.8,0-16,7.2-16,16l0,0c0,8.8,7.2,16,16,16h264c4.4,0,8,3.6,8,8l0,0c0,4.4-3.6,8-8,8H43
			c-4.4,0-8,3.6-8,8c0,12.3,9.4,22.7,21.6,23.9C50.1,246.5,43,292.4,43,313c0,83.1,5.1,116.1,7.4,126.5c-2,3.7-15.4,21.1-15.4,25.5
			c0,19,19.8,31.3,37.4,24.4c133.8,29,225,32.1,373.1,0c17.4,6.9,37.4-5.3,37.4-24.4c0-4.4-13.3-21.8-15.4-25.5
			C469.9,429.1,475,396.1,475,313z M426.7,177H363c-4.4,0-8-3.6-8-8l0,0c0-4.4,3.6-8,8-8h64c4.4,0,8,3.6,8,8c0,0.2,0,0.4,0,0.5
			C434.6,173.8,431,177.1,426.7,177z"/>
	</g>
</g>
</svg>
