<?xml version="1.0" encoding="utf-8"?>
<!-- Generator: Adobe Illustrator 22.1.0, SVG Export Plug-In . SVG Version: 6.00 Build 0)  -->
<svg version="1.1" id="Layer_1" xmlns="http://www.w3.org/2000/svg" xmlns:xlink="http://www.w3.org/1999/xlink" x="0px" y="0px"
	 viewBox="0 0 512 388" style="enable-background:new 0 0 512 388;" xml:space="preserve" fill="white">
<g id="Fertilizer">
	<g id="Glyph">
		<path d="M298.2,207c22.3-12,36.5-44.7,37.1-46.1c1.7-4.1-0.3-8.9-4.4-10.6c-0.5-0.2-1-0.4-1.5-0.5c-1.5-0.3-36.6-6.5-58.9,5.4
			c-6,3.2-11.1,7.7-14.9,13.3c-3.8-5.6-8.9-10.1-14.9-13.3c-22.3-12-57.4-5.7-58.9-5.4c-4.4,0.9-7.2,5.1-6.4,9.5
			c0.1,0.5,0.3,1,0.5,1.5c0.6,1.4,14.8,34.1,37.1,46.1c12.3,6.6,24.5,6.1,35,2.5v19c-20.4,3.2-36.6,19.1-40.1,39.5H192
			c-4.3-0.1-7.9,3.4-8,7.7c-0.1,4.3,3.4,7.9,7.7,8c0.1,0,0.2,0,0.3,0h128c4.3,0.1,7.9-3.4,8-7.7c0.1-4.3-3.4-7.9-7.7-8
			c-0.1,0-0.2,0-0.3,0h-17.4c-3.4-19.8-18.8-35.5-38.6-39.2v-19.2C274.4,212.6,287.4,212.8,298.2,207z"/>
		<path d="M472,188c0-20.6-7.1-66.5-13.6-104.1c13.2-1.3,22.8-13,21.5-26.2c-0.5-5.1-2.6-9.9-6-13.7c4.2-4.7,6.4-10.9,6.1-17.2
			C479.4,14,468.4,4,455.5,4H48c-8.8,0-16,7.2-16,16l0,0c0,8.8,7.2,16,16,16h264c4.4,0,8,3.6,8,8l0,0c0,4.4-3.6,8-8,8H40
			c-4.4,0-8,3.6-8,8c0,12.3,9.4,22.7,21.6,23.9C47.1,121.5,40,167.4,40,188c0,83.1,5.1,116.1,7.4,126.5c-2,3.7-15.4,21.1-15.4,25.5
			c0,19,19.8,31.3,37.4,24.4c133.8,29,225,32.1,373.1,0c17.4,6.9,37.4-5.3,37.4-24.4c0-4.4-13.3-21.8-15.4-25.5
			C466.9,304.1,472,271.1,472,188z M292,324h-72c-59.6,0-108-48.4-108-108s48.4-108,108-108h72c59.6,0,108,48.4,108,108
			S351.6,324,292,324z M423.7,52H360c-4.4,0-8-3.6-8-8l0,0c0-4.4,3.6-8,8-8h64c4.4,0,8,3.6,8,8c0,0.2,0,0.4,0,0.5
			C431.6,48.8,428,52.1,423.7,52z"/>
	</g>
</g>
</svg>
