<?xml version="1.0" encoding="utf-8"?>
<!-- Generator: Adobe Illustrator 22.1.0, SVG Export Plug-In . SVG Version: 6.00 Build 0)  -->
<svg version="1.1" id="Layer_1" xmlns="http://www.w3.org/2000/svg" xmlns:xlink="http://www.w3.org/1999/xlink" x="0px" y="0px"
	 viewBox="0 0 277 512" style="enable-background:new 0 0 277 512;" xml:space="preserve" fill="white">
<path d="M93.1,114.2v215.5c-28.3,10.5-47.2,37.6-47.2,67.9c0,40,32.5,72.5,72.5,72.5c40,0,72.5-32.5,72.5-72.5
	c0-30.4-18.9-57.4-47.2-67.9V114.2H93.1z"/>
<path d="M262.3,167.4h-43.5c-4.1,0-7.5,3.4-7.5,7.5s3.4,7.5,7.5,7.5h43.5c4.1,0,7.5-3.4,7.5-7.5S266.4,167.4,262.3,167.4z"/>
<path d="M218.8,121.7h19.8c4.1,0,7.5-3.4,7.5-7.5c0-4.1-3.4-7.5-7.5-7.5h-19.8c-4.1,0-7.5,3.4-7.5,7.5
	C211.3,118.3,214.6,121.7,218.8,121.7z"/>
<path d="M218.8,60.9h26.8c4.1,0,7.5-3.4,7.5-7.5c0-4.1-3.4-7.5-7.5-7.5h-26.8c-4.1,0-7.5,3.4-7.5,7.5
	C211.3,57.5,214.6,60.9,218.8,60.9z"/>
<path d="M245.5,289h-26.8c-4.1,0-7.5,3.4-7.5,7.5c0,4.1,3.4,7.5,7.5,7.5h26.8c4.1,0,7.5-3.4,7.5-7.5C253,292.4,249.7,289,245.5,289z
	"/>
<path d="M218.8,243.2h19.8c4.1,0,7.5-3.4,7.5-7.5c0-4.1-3.4-7.5-7.5-7.5h-19.8c-4.1,0-7.5,3.4-7.5,7.5
	C211.3,239.9,214.6,243.2,218.8,243.2z"/>
<path d="M186.2,309.8v-242c0-37.4-30.4-67.8-67.8-67.8C81,0,50.6,30.4,50.6,67.8v242c-28,21.2-44.6,54.5-44.6,89.7
	c0,62,50.5,112.5,112.5,112.5c62,0,112.5-50.5,112.5-112.5C230.9,364.3,214.3,331,186.2,309.8z M118.4,497
	c-53.7,0-97.5-43.7-97.5-97.5c0-31.7,15.5-61.5,41.5-79.8c2-1.4,3.2-3.7,3.2-6.1V67.8c0-29.1,23.7-52.8,52.8-52.8
	c29.1,0,52.8,23.7,52.8,52.8v245.8c0,2.4,1.2,4.7,3.2,6.1c26,18.3,41.5,48.1,41.5,79.8C215.9,453.3,172.1,497,118.4,497z"/>
<path d="M151.2,324.7V67.8c0-18.1-14.7-32.8-32.8-32.8c-18.1,0-32.8,14.7-32.8,32.8v192.6c0,4.1,3.4,7.5,7.5,7.5s7.5-3.4,7.5-7.5
	V121.7h35.7v208c0,3.1,1.9,5.9,4.9,7c25.3,9.4,42.3,33.9,42.3,60.9c0,35.8-29.2,65-65,65c-35.8,0-65-29.2-65-65
	c0-27,17-51.5,42.3-60.9c2.9-1.1,4.9-3.9,4.9-7v-39.2c0-4.1-3.4-7.5-7.5-7.5s-7.5,3.4-7.5,7.5v34.2c-28.4,12.8-47.2,41.5-47.2,72.9
	c0,44.1,35.9,80,80,80c44.1,0,80-35.9,80-80C198.4,366.2,179.6,337.5,151.2,324.7z M100.6,106.7V67.8c0-9.8,8-17.8,17.8-17.8
	c9.8,0,17.8,8,17.8,17.8v38.8H100.6z"/>
</svg>
