<?xml version="1.0" encoding="utf-8"?>
<!-- Generator: Adobe Illustrator 22.1.0, SVG Export Plug-In . SVG Version: 6.00 Build 0)  -->
<svg version="1.1" id="Capa_1" xmlns="http://www.w3.org/2000/svg" xmlns:xlink="http://www.w3.org/1999/xlink" x="0px" y="0px"
	 viewBox="0 0 402 402" style="enable-background:new 0 0 402 402;" xml:space="preserve" fill="white">
<g>
	<path d="M394,144.2c-5.3-5.3-11.8-8-19.4-8H265.8V27.4c0-7.6-2.7-14.1-8-19.4c-5.3-5.3-11.8-8-19.4-8h-74.8c-7.6,0-14.1,2.7-19.4,8
		s-8,11.8-8,19.4v108.8H27.4c-7.6,0-14.1,2.7-19.4,8S0,156,0,163.6v74.8c0,7.6,2.7,14.1,8,19.4c5.3,5.3,11.8,8,19.4,8h108.8v108.8
		c0,7.6,2.7,14.1,8,19.4c5.3,5.3,11.8,8,19.4,8h74.8c7.6,0,14.1-2.7,19.4-8c5.3-5.3,8-11.8,8-19.4V265.8h108.8
		c7.6,0,14.1-2.7,19.4-8c5.3-5.3,8-11.8,8-19.4v-74.8C402,156,399.3,149.5,394,144.2z"/>
</g>
</svg>
