<?xml version="1.0" encoding="utf-8"?>
<!-- Generator: Adobe Illustrator 22.1.0, SVG Export Plug-In . SVG Version: 6.00 Build 0)  -->
<svg version="1.1" id="Layer_1" xmlns="http://www.w3.org/2000/svg" xmlns:xlink="http://www.w3.org/1999/xlink" x="0px" y="0px"
	 viewBox="0 0 41 49" style="enable-background:new 0 0 41 49;" xml:space="preserve">
<style type="text/css">
	.st0{fill:#B8E269;}
</style>
<g id="Polygon_98" transform="translate(41) rotate(90)">
	<path class="st0" d="M41.9,38H7c-1.1,0-2.1-0.6-2.6-1.5c-0.5-0.9-0.5-2.1,0-3L21.8,4.3c0.5-0.9,1.5-1.5,2.6-1.5s2,0.5,2.6,1.5
		l17.4,29.2c0.6,0.9,0.6,2.1,0,3C43.9,37.4,42.9,38,41.9,38z"/>
	<path class="st0" d="M24.4,3.8c-0.3,0-1.2,0.1-1.7,1L5.2,34c-0.5,0.9-0.2,1.7,0,2c0.2,0.3,0.7,1,1.7,1h35c1.1,0,1.6-0.7,1.7-1
		c0.2-0.3,0.5-1.1,0-2L26.1,4.8C25.6,3.9,24.7,3.8,24.4,3.8 M24.4,1.8c1.3,0,2.7,0.6,3.4,1.9L45.3,33c1.6,2.6-0.3,6-3.4,6H7
		c-3.1,0-5-3.4-3.4-6.1L21,3.7C21.7,2.4,23.1,1.8,24.4,1.8z"/>
</g>
</svg>
