<?xml version="1.0" encoding="utf-8"?>
<!-- Generator: Adobe Illustrator 22.1.0, SVG Export Plug-In . SVG Version: 6.00 Build 0)  -->
<svg version="1.1" id="Layer_1" xmlns="http://www.w3.org/2000/svg" xmlns:xlink="http://www.w3.org/1999/xlink" x="0px" y="0px"
	 viewBox="0 0 41 49" style="enable-background:new 0 0 41 49;" xml:space="preserve">
<style type="text/css">
	.st0{fill:#B8E269;}
</style>
<g id="Polygon_98" transform="translate(41) rotate(90)">
	<path class="st0" d="M7,4.8l34.9,0c1.1,0,2.1,0.6,2.6,1.5s0.5,2.1,0,3L27.1,38.5c-0.5,0.9-1.5,1.5-2.6,1.5s-2-0.5-2.6-1.5L4.5,9.3
		c-0.6-0.9-0.6-2.1,0-3C5,5.4,6,4.8,7,4.8z"/>
	<path class="st0" d="M24.5,39c0.3,0,1.2-0.1,1.7-1L43.7,8.8c0.5-0.9,0.2-1.7,0-2c-0.2-0.3-0.7-1-1.7-1L7,5.8c-1.1,0-1.6,0.7-1.7,1
		c-0.2,0.3-0.5,1.1,0,2L22.8,38C23.3,38.9,24.2,39,24.5,39 M24.5,41c-1.3,0-2.7-0.6-3.4-1.9L3.6,9.8C2,7.2,3.9,3.8,7,3.8l34.9,0
		c3.1,0,5,3.4,3.4,6.1L27.9,39.1C27.2,40.4,25.8,41,24.5,41z"/>
</g>
</svg>
