<?xml version="1.0" encoding="utf-8"?>
<!-- Generator: Adobe Illustrator 22.1.0, SVG Export Plug-In . SVG Version: 6.00 Build 0)  -->
<svg version="1.1" id="Capa_1" xmlns="http://www.w3.org/2000/svg" xmlns:xlink="http://www.w3.org/1999/xlink" x="0px" y="0px"
	 viewBox="0 0 455.4 455.4" style="enable-background:new 0 0 455.4 455.4;" xml:space="preserve">
<style type="text/css">
	.st0{fill:#FFFFFF;}
</style>
<path d="M405.5,412.8c-69.7,56.9-287.3,56.9-355.6,0c-69.7-56.9-62.6-300.1,0-364.1s293-64,355.6,0S475.2,355.9,405.5,412.8z"/>
<path class="st0" d="M362.8,227.9c0,14.2-11.4,25.6-25.6,25.6h-85.3v85.3c0,14.2-11.4,25.6-25.6,25.6s-25.6-11.4-25.6-25.6v-85.3
	h-85.3c-14.2,0-25.6-11.4-25.6-25.6s11.4-25.6,25.6-25.6h85.3v-85.3c0-14.2,11.4-25.6,25.6-25.6s25.6,11.4,25.6,25.6v85.3h85.3
	C351.4,202.3,362.8,213.7,362.8,227.9z"/>
</svg>
