<svg xmlns="http://www.w3.org/2000/svg" width="63.465" height="63.465" viewBox="0 0 63.465 63.465">
  <path id="king-size" d="M51.831,15.016,41.56,25.287h7.03a2.479,2.479,0,1,1,0,4.958h-9.3a6.2,6.2,0,0,1-6.2-6.2v-9.3a2.479,2.479,0,1,1,4.958,0v7.03l10.27-10.27a2.479,2.479,0,0,1,3.507,3.506ZM28.014,50.821a2.479,2.479,0,0,0,2.479-2.479v-9.3a6.2,6.2,0,0,0-6.2-6.2H15a2.479,2.479,0,1,0,0,4.958h7.03L11.758,48.077a2.479,2.479,0,0,0,3.507,3.506l10.27-10.27v7.03a2.479,2.479,0,0,0,2.479,2.479Zm32.972-7.189a2.479,2.479,0,0,0,2.479-2.479V9.916A9.927,9.927,0,0,0,53.548,0H9.916A9.927,9.927,0,0,0,0,9.916V53.548a9.927,9.927,0,0,0,9.916,9.916H53.548a9.927,9.927,0,0,0,9.916-9.916,2.479,2.479,0,1,0-4.958,0,4.964,4.964,0,0,1-4.958,4.958H9.916a4.964,4.964,0,0,1-4.958-4.958V9.916A4.964,4.964,0,0,1,9.916,4.958H53.548a4.964,4.964,0,0,1,4.958,4.958V41.153A2.479,2.479,0,0,0,60.986,43.632Zm0,0" fill="#97b753"/>
</svg>
