<?xml version="1.0" encoding="utf-8"?>
<!-- Generator: Adobe Illustrator 22.1.0, SVG Export Plug-In . SVG Version: 6.00 Build 0)  -->
<svg version="1.1" id="Capa_1" xmlns="http://www.w3.org/2000/svg" xmlns:xlink="http://www.w3.org/1999/xlink" x="0px" y="0px"
	 viewBox="0 0 455.4 455.4" style="enable-background:new 0 0 455.4 455.4;" xml:space="preserve">
<style type="text/css">
	.st0{fill:#FFFFFF;}
</style>
<path d="M405.5,412.8c-69.7,56.9-287.3,56.9-355.6,0c-69.7-56.9-62.6-300.1,0-364.1s293-64,355.6,0S475.2,355.9,405.5,412.8z"/>
<g>
	<g>
		<path class="st0" d="M229,16.7c-61.1,0-110.9,49.8-110.9,110.9S167.9,238.5,229,238.5s110.9-49.8,110.9-110.9S290.1,16.7,229,16.7
			z"/>
	</g>
</g>
<path class="st0" d="M366,304.9c-30.4-30.8-70.6-47.8-113.3-47.8h-49.3c-42.7,0-83,17-113.3,47.8c-26,26.4-42,60.2-45.9,96.5
	c1.9,1.9,3.8,3.7,5.8,5.3c68.3,56.9,285.9,56.9,355.6,0c2.2-1.8,4.3-3.7,6.3-5.9C407.8,364.8,391.9,331.2,366,304.9z"/>
</svg>
