<svg xmlns="http://www.w3.org/2000/svg" width="205" height="205" viewBox="0 0 205 205">
  <g id="Gruppe_1004" data-name="Gruppe 1004" transform="translate(-1207 -2003)">
    <circle id="Ellipse_7" data-name="Ellipse 7" cx="102.5" cy="102.5" r="102.5" transform="translate(1207 2003)" fill="#fff"/>
    <g id="Gruppe_122" data-name="Gruppe 122" transform="translate(1265 2049.196)">
      <g id="Gruppe_121" data-name="Gruppe 121">
        <path id="Pfad_213" data-name="Pfad 213" d="M129.7,88.4l-7.5-12.5a37.124,37.124,0,0,1-5.293-19.1V45.852a30.607,30.607,0,0,0-21.834-29.28V8.734a8.734,8.734,0,0,0-17.468,0v7.838a30.607,30.607,0,0,0-21.834,29.28V56.8a37.147,37.147,0,0,1-5.288,19.1l-7.5,12.5a2.187,2.187,0,0,0,1.869,3.31h82.97A2.183,2.183,0,0,0,129.7,88.4Z" transform="translate(-42.675)" fill="#97b753" stroke="#97b753" stroke-width="1"/>
      </g>
    </g>
    <g id="Gruppe_124" data-name="Gruppe 124" transform="translate(1294.914 2145.266)">
      <g id="Gruppe_123" data-name="Gruppe 123">
        <path id="Pfad_214" data-name="Pfad 214" d="M188.815,469.333a15.192,15.192,0,0,0,27.5,0Z" transform="translate(-188.815 -469.333)" fill="#707070" stroke="#707070" stroke-width="1"/>
      </g>
    </g>
  </g>
</svg>
