<svg xmlns="http://www.w3.org/2000/svg" width="205" height="205" viewBox="0 0 205 205">
  <g id="Gruppe_1005" data-name="Gruppe 1005" transform="translate(-1545 -2003)">
    <circle id="Ellipse_118" data-name="Ellipse 118" cx="102.5" cy="102.5" r="102.5" transform="translate(1545 2003)" fill="#fff"/>
    <path id="Pfad_71" data-name="Pfad 71" d="M260.365,227.782a32.682,32.682,0,0,0-17.923-29.1,44.444,44.444,0,0,1-43.762,43.762,32.593,32.593,0,0,0,45.681,13.394l15.862,4.387-4.387-15.862a32.466,32.466,0,0,0,4.53-16.579Zm0,0" transform="translate(1433.435 1888.435)" fill="#97b753" stroke="#97b753" stroke-width="1"/>
    <path id="Pfad_72" data-name="Pfad 72" d="M76.978,38.489A38.489,38.489,0,1,0,5.337,58.053L.142,76.836l18.784-5.195A38.5,38.5,0,0,0,76.978,38.489ZM35.536,17.719h5.906V47.447H35.536Zm0,35.634h5.906v5.906H35.536Zm0,0" transform="translate(1593 2048)" fill="#97b753" stroke="#97b753" stroke-width="1"/>
  </g>
</svg>
