<svg xmlns="http://www.w3.org/2000/svg" width="205" height="205" viewBox="0 0 205 205">
  <g id="Gruppe_1002" data-name="Gruppe 1002" transform="translate(-517 -2003)">
    <circle id="Ellipse_116" data-name="Ellipse 116" cx="102.5" cy="102.5" r="102.5" transform="translate(517 2003)" fill="#fff"/>
    <path id="Pfad_393" data-name="Pfad 393" d="M45.792,74.731H19.246A3.041,3.041,0,0,1,16.2,71.69a25.58,25.58,0,0,0-7-17.542A32.064,32.064,0,0,1,9.785,9.617,31.7,31.7,0,0,1,32.456,0h.063A32.075,32.075,0,0,1,64.54,32.128a32.049,32.049,0,0,1-8.779,22.1A25.318,25.318,0,0,0,48.832,71.69a3.042,3.042,0,0,1-3.041,3.041Zm0,0" transform="translate(585.503 2053)" fill="#97b753" stroke="#97b753" stroke-width="1"/>
    <path id="Pfad_394" data-name="Pfad 394" d="M108.725,392.492H82.974a3.041,3.041,0,0,1,0-6.082h25.751a3.041,3.041,0,0,1,0,6.082Zm0,0" transform="translate(522.171 1744.929)" fill="#707070" stroke="#707070" stroke-width="1"/>
    <path id="Pfad_395" data-name="Pfad 395" d="M108.725,440.285H82.974a3.041,3.041,0,1,1,0-6.082h25.751a3.041,3.041,0,1,1,0,6.082Zm0,0" transform="translate(522.171 1706.825)" fill="#707070" stroke="#707070" stroke-width="1"/>
    <path id="Pfad_396" data-name="Pfad 396" d="M122.621,488.082H106.346a3.041,3.041,0,1,1,0-6.082h16.275a3.041,3.041,0,0,1,0,6.082Zm0,0" transform="translate(503.538 1668.718)" fill="#707070" stroke="#707070" stroke-width="1"/>
  </g>
</svg>
