<?xml version="1.0" encoding="utf-8"?>
<!-- Generator: Adobe Illustrator 22.1.0, SVG Export Plug-In . SVG Version: 6.00 Build 0)  -->
<svg version="1.1" id="Layer_1" xmlns="http://www.w3.org/2000/svg" xmlns:xlink="http://www.w3.org/1999/xlink" x="0px" y="0px"
	 viewBox="0 0 74 115" style="enable-background:new 0 0 74 115;" xml:space="preserve">
<g id="Gruppe_1002" transform="translate(-517 -2003)">
	<path id="Pfad_393" class="st0" fill="#97B753" d="M567.3,2082.7h-26.5c-1.7,0-3-1.4-3-3c0,0,0,0,0,0c0-6.5-2.5-12.8-7-17.5
		c-11.8-12.6-11.6-32.3,0.6-44.5c6-6.1,14.1-9.6,22.7-9.6h0.1c17.7,0,32.1,14.4,32,32.1c0,8.2-3.1,16.1-8.8,22.1
		c-4.5,4.7-6.9,11-6.9,17.5C570.3,2081.4,569,2082.7,567.3,2082.7L567.3,2082.7z"/>
	<path id="Pfad_394" class="st1" fill="#707070" d="M566.9,2092.4h-25.8c-1.7,0-3-1.4-3-3c0-1.7,1.4-3,3-3h25.8c1.7,0,3,1.4,3,3
		C569.9,2091.1,568.6,2092.4,566.9,2092.4z"/>
	<path id="Pfad_395" class="st1" fill="#707070" d="M566.9,2102.1h-25.8c-1.7,0-3-1.4-3-3c0-1.7,1.4-3,3-3h25.8c1.7,0,3,1.4,3,3
		C569.9,2100.7,568.6,2102.1,566.9,2102.1z"/>
	<path id="Pfad_396" class="st1" fill="#707070" d="M562.2,2111.8h-16.3c-1.7,0-3-1.4-3-3s1.4-3,3-3h16.3c1.7,0,3,1.4,3,3
		S563.8,2111.8,562.2,2111.8z"/>
</g>
</svg>
