<svg xmlns="http://www.w3.org/2000/svg" width="205" height="205" viewBox="0 0 205 205">
  <g id="Gruppe_1003" data-name="Gruppe 1003" transform="translate(-864 -2003)">
    <circle id="Ellipse_117" data-name="Ellipse 117" cx="102.5" cy="102.5" r="102.5" transform="translate(864 2003)" fill="#fff"/>
    <path id="Pfad_397" data-name="Pfad 397" d="M317.206,45.536c.588,1.608,7.123,20.745-6.279,43.312-8.14,13.707-20.5,14.614-21.71,14.67-.709-.983-7.687-11.224-2.018-26.124C296.533,52.863,315.582,46.076,317.206,45.536Z" transform="translate(689.033 2003.207)" fill="#97b753" stroke="#b8e269" stroke-width="1"/>
    <path id="Pfad_398" data-name="Pfad 398" d="M97.095,45.536c-.588,1.608-7.123,20.745,6.279,43.312,8.14,13.707,20.5,14.614,21.71,14.67.709-.983,7.687-11.224,2.018-26.124C117.769,52.863,98.72,46.076,97.095,45.536Z" transform="translate(829.649 2003.207)" fill="#97b753" stroke="#b8e269" stroke-width="1"/>
    <path id="Pfad_399" data-name="Pfad 399" d="M193.973,0c-2,1.936-25.061,25.309-21.393,67.772,2.228,25.792,19.662,35.843,21.393,36.779,1.73-.937,19.165-10.988,21.393-36.779C219.035,25.309,195.969,1.936,193.973,0Z" transform="translate(772.518 2036.906)" fill="#97b753" stroke="#b8e269" stroke-width="1"/>
    <path id="Pfad_400" data-name="Pfad 400" d="M305.381,168.113a83.569,83.569,0,0,0,2.871-28.779s-8.358,3.723-29.361,17.3c-16.326,10.55-21.377,29.047-22.891,34.033h19.188A31.411,31.411,0,0,0,305.381,168.113Z" transform="translate(710.492 1933.792)" fill="#97b753" stroke="#b8e269" stroke-width="1"/>
    <path id="Pfad_401" data-name="Pfad 401" d="M57.179,168.113a83.568,83.568,0,0,1-2.871-28.779s8.358,3.723,29.361,17.3c16.326,10.55,21.377,29.047,22.891,34.033H87.373A31.411,31.411,0,0,1,57.179,168.113Z" transform="translate(859.931 1933.792)" fill="#97b753" stroke="#b8e269" stroke-width="1"/>
    <path id="Pfad_402" data-name="Pfad 402" d="M170.676,385.378h-27.75a15.278,15.278,0,0,1-15.02-12.485L121.956,340.9h69.689L185.7,372.893A15.278,15.278,0,0,1,170.676,385.378Z" transform="translate(809.691 1784.622)" fill="#707070" stroke="#707070" stroke-width="1"/>
    <path id="Pfad_403" data-name="Pfad 403" d="M174.337,338.43H102.218a5.292,5.292,0,0,1-5.292-5.292h0a5.292,5.292,0,0,1,5.292-5.292h72.119a5.292,5.292,0,0,1,5.292,5.292h0A5.292,5.292,0,0,1,174.337,338.43Z" transform="translate(828.215 1794.283)" fill="#707070" stroke="#707070" stroke-width="1"/>
  </g>
</svg>
