<svg xmlns="http://www.w3.org/2000/svg" width="205" height="205" viewBox="0 0 205 205">
  <g id="Gruppe_1001" data-name="Gruppe 1001" transform="translate(-179 -2003)">
    <circle id="Ellipse_115" data-name="Ellipse 115" cx="102.5" cy="102.5" r="102.5" transform="translate(179 2003)" fill="#fff"/>
    <path id="Vereinigungsmenge_49" data-name="Vereinigungsmenge 49" d="M68.134,93.159l-8.882-8.882L17.645,81.5a7.77,7.77,0,0,0-4.4,1.023l-9.521,5.5A2.482,2.482,0,0,1,0,85.872V64.982a2.482,2.482,0,0,1,3.724-2.15l9.521,5.5a7.776,7.776,0,0,0,4.4,1.023l25.014-1.668L26.22,51.244a5.918,5.918,0,0,1,0-8.368L59.33,9.765a5.918,5.918,0,0,1,8.368,0l.841.841,4.632-4.632h0a20.428,20.428,0,0,1,34.873,14.445V50.111l1.569,1.569a5.918,5.918,0,0,1,0,8.368L76.5,93.159a5.919,5.919,0,0,1-8.369,0ZM97.513,39.58V20.418a9.9,9.9,0,0,0-16.894-7l-4.632,4.633Z" transform="translate(222.759 2039.906)" fill="#707070" stroke="#707070" stroke-width="1"/>
    <path id="Pfad_392" data-name="Pfad 392" d="M27.6,404.434a10.044,10.044,0,1,1-20.088,0c0-4.541,6.73-16.913,9.171-21.253a1,1,0,0,1,1.744,0c2.443,4.341,9.172,16.713,9.172,21.253Zm0,0" transform="translate(209.219 1755.722)" fill="#97b753" stroke="#97b753" stroke-width="1"/>
  </g>
</svg>
