<?xml version="1.0" encoding="utf-8"?>
<!-- Generator: Adobe Illustrator 22.1.0, SVG Export Plug-In . SVG Version: 6.00 Build 0)  -->
<svg version="1.1" id="Layer_1" xmlns="http://www.w3.org/2000/svg" xmlns:xlink="http://www.w3.org/1999/xlink" x="0px" y="0px"
	 viewBox="0 0 205 205" style="enable-background:new 0 0 205 205;" xml:space="preserve">
<style type="text/css">
	.st0{fill:#FFFFFF;}
	.st1{fill:#707070;}
	.st2{fill:#97B753;}
</style>
<circle id="Ellipse_115" class="st0" cx="102.5" cy="102.5" r="102.5"/>
<path id="Vereinigungsmenge_49" class="st1" d="M111.9,130.1l-8.9-8.9l-41.6-2.8c-1.5-0.1-3.1,0.3-4.4,1l-9.5,5.5
	c-1.2,0.7-2.7,0.3-3.4-0.9c-0.2-0.4-0.3-0.8-0.3-1.2v-20.9c0-1.4,1.1-2.5,2.5-2.5c0.4,0,0.9,0.1,1.2,0.3l9.5,5.5
	c1.3,0.8,2.9,1.1,4.4,1l25-1.7L70,88.2c-2.3-2.3-2.3-6.1,0-8.4l33.1-33.1c2.3-2.3,6.1-2.3,8.4,0l0.8,0.8l4.6-4.6l0,0
	c8-8,20.9-8,28.9,0c3.8,3.8,6,9,6,14.4V87l1.6,1.6c2.3,2.3,2.3,6.1,0,8.4l-33.1,33.1C117.9,132.4,114.2,132.4,111.9,130.1
	L111.9,130.1z M141.3,76.5V57.3c0-5.5-4.4-9.9-9.9-9.9c-2.6,0-5.1,1-7,2.9l-4.6,4.6L141.3,76.5z"/>
<path id="Pfad_392" class="st2" d="M57.8,157.2c0,5.5-4.5,10-10,10s-10-4.5-10-10c0-4.5,6.7-16.9,9.2-21.3c0.3-0.5,0.9-0.7,1.4-0.4
	c0.2,0.1,0.3,0.2,0.4,0.4C51.1,140.2,57.8,152.6,57.8,157.2L57.8,157.2z"/>
</svg>
